<svg xmlns="http://www.w3.org/2000/svg" width="512" height="512" x="0" y="0" version="1.1" viewBox="0 0 512 512"><title>plug icon</title><desc>plug icon from the IconExperience.com G-Collection. Copyright by INCORS GmbH (www.incors.com).</desc><g><polygon fill="#788f9b" points="0 224 112 224 112 288 0 288"/><polygon fill="#546e7a" points="0 256 112 256 112 288 0 288"/><path fill="#fbd734" d="M336,320l152,0c13.2,0 24,10.8 24,24l0,0c0,13.2 -10.8,24 -24,24l-152,0z M336,144l152,0c13.2,0 24,10.8 24,24l0,0c0,13.2 -10.8,24 -24,24l-152,0z"/><path fill="#f9bf2c" d="M512,166.95c0,0.35 0,0.7 0,1.05l0,0c0,13.2 -10.8,24 -24,24l-152,0l0,-25.05z M512,342.95c0,0.35 0,0.7 0,1.05l0,0c0,13.2 -10.8,24 -24,24l-152,0l0,-25.05z"/><path fill="#546e7a" d="M368,96l-128,0l0,320l128,0z M32,208l16,0c0,-55.6 79.35,-96 128,-96l48,0l0,288l-48,0c-52.85,0 -128,-43.15 -128,-96l-16,0z"/><path fill="#445a64" d="M240,256l128,0l0,160l-128,0z M32,256l192,0l0,144l-48,0c-52.85,0 -128,-43.15 -128,-96l-16,0z"/><polygon fill="#8fa3ad" points="272 240 368 240 368 272 272 272"/><path fill="#788f9b" d="M224,80l16,0c8.8,0 16,7.2 16,16l0,320c0,8.8 -7.2,16 -16,16l-16,0c-8.8,0 -16,-7.2 -16,-16l0,-320c0,-8.8 7.2,-16 16,-16z"/><path fill="#546e7a" d="M256,256l0,160c0,8.8 -7.2,16 -16,16l-16,0c-8.8,0 -16,-7.2 -16,-16l0,-160z"/></g></svg>