<svg xmlns="http://www.w3.org/2000/svg" width="512" height="512" x="0" y="0" version="1.1" viewBox="0 0 512 512"><title>nav right icon</title><desc>nav right icon from the IconExperience.com G-Collection. Copyright by INCORS GmbH (www.incors.com).</desc><g><path fill="#28b5f5" d="M496,256c0,132.55 -107.45,240 -240,240c-132.55,0 -240,-107.45 -240,-240c0,-132.55 107.45,-240 240,-240c132.55,0 240,107.45 240,240z"/><path fill="#0299e3" d="M496,256c0,132.55 -107.45,240 -240,240c-66.25,0 -126.25,-26.85 -169.7,-70.3l339.4,-339.4c43.45,43.45 70.3,103.45 70.3,169.7z"/><polygon fill="#fff" points="112 208 112 304 288 304 288 384 416 256 288 128 288 208"/><polygon fill="#ebedef" points="208 304 288 304 288 384 416 256 336 176"/></g></svg>