<svg xmlns="http://www.w3.org/2000/svg" width="512" height="512" x="0" y="0" version="1.1" viewBox="0 0 512 512"><title>floppy disk icon</title><desc>floppy disk icon from the IconExperience.com G-Collection. Copyright by INCORS GmbH (www.incors.com).</desc><g><path fill="#546e7a" d="M480,48l0,416c0,8.8 -7.2,16 -16,16l-400,0l-32,-32l0,-400c0,-8.8 7.2,-16 16,-16l416,0c8.8,0 16,7.2 16,16z"/><path fill="#445a64" d="M480,48l0,416c0,8.8 -7.2,16 -16,16l-208,0l0,-448l208,0c8.8,0 16,7.2 16,16z"/><path fill="#dff3fd" d="M96,32l320,0l0,224c0,8.8 -7.2,16 -16,16l-288,0c-8.8,0 -16,-7.2 -16,-16z"/><path fill="#b1e3fb" d="M256,32l160,0l0,224c0,8.8 -7.2,16 -16,16l-144,0z"/><path fill="#f98b00" d="M416,208l0,48c0,8.8 -7.2,16 -16,16l-288,0c-8.8,0 -16,-7.2 -16,-16l0,-48z"/><path fill="#f37c00" d="M416,208l0,48c0,8.8 -7.2,16 -16,16l-144,0l0,-64z"/><path fill="#ebedef" d="M384,336l0,144l-256,0l0,-144c0,-8.8 7.2,-16 16,-16l224,0c8.8,0 16,7.2 16,16z M160,336l0,112l64,0l0,-112z"/><path fill="#cdd7db" d="M384,336l0,144l-128,0l0,-160l112,0c8.8,0 16,7.2 16,16z"/></g></svg>